<?xml version="1.0" encoding="UTF-8"?>
<svg id="Layer_2" data-name="Layer 2" xmlns="http://www.w3.org/2000/svg" viewBox="0 0 571.4 600">
  <defs>
    <style>
      .cls-1 {
        fill: #0892a5;
      }

      .cls-2 {
        opacity: .15;
      }
    </style>
  </defs>
  <g id="Desktop_Mockup" data-name="Desktop Mockup">
    <g id="Parenting_Icon" data-name="Parenting Icon" class="cls-2">
      <path class="cls-1" d="M474.07,600c6.31-4.22,8.78-10.61,5.44-18.01l-52.98-55.64c-25.52-3.18-50.3,1.52-75.44-7.46-16.03-5.73-63.38-37.51-76.59-49.59-8.22-7.52-5.28-22.08,5.23-23.69s27.24,17.8,37.65,18.59c12.53.95,21.4-15.59,12.29-25.87l-77.58-82.51c-6.46-10.94,6.36-24.23,16.72-16.39,17.91,15.92,33.97,39.19,51.88,54.44,15.31,13.03,28.72-2.16,17.88-16.43-19.02-25.04-49.12-47.66-69.11-72.66-8.28-13.13,7.29-26.38,18.26-15.66l69.81,73.11c10.1,7.94,23.13-5,16.4-16.05-14.78-20.13-39.36-37.53-53.73-57.19-9.31-12.74,2.46-26.83,14.86-19.12l54.82,57.22c4.88,4.18,13.09,3.14,16.8-2.27,10.54-15.34-19.05-24.86-18.41-39.22.46-10.35,12.88-15.87,20.05-8.33,38.97,46.17,87.73,71.24,91.43,139.43.43,7.98-1.7,26.41,1.73,32.15l52.52,54.96c11.78,6,22.45-6.58,14.92-18.01l-46.62-49.43c2.49-38.04-5.47-72.96-27.96-103.04,4.77-7.08,10.65-11.9,13.76-20.32,9.86-26.72-3.71-53-28.4-62.64,20.06-26.4,6.93-62.95-22.31-73.79,26.91-42.04-20.89-92.68-60.82-63.87-10.45-29.32-40.87-43.7-67.39-26.23-4.3,2.83-32.01,30.87-33.06,34.38-3.15,10.55,4.12,18.69,14.32,16.21,6.32-1.53,23.41-25.61,32.1-30.71,20.41-11.98,40.57,13.29,27.8,31.54-15.92,22.74-47.94,44.53-64.04,67.46-10.13,14.42,3,28.27,15.98,17.95l86.53-90.69c21.31-13.3,43.41,11.52,27.92,32.83-13.06,17.97-36.24,34.68-50.17,52.74-6.1,11.12,3.17,22.76,14.73,17.8,6.42-2.75,22.66-25.37,30.5-31.22,16-11.95,37.37.24,34.22,20.71-1.97,12.81-25.91,30.13-33.91,40.6-1.36.25-10.35-9.4-12.75-10.96-12.18-7.92-28.25-7.38-40.01,1.17-3.24.99-9.99,13.76-11.71,13.35-1.45-.35-14.33-15.57-17.34-18.12-17.81-15.09-44.88-8.63-53.6,13.47-27.37-13.66-56.44,6.89-52.28,39.15.34,2.63,4.11,10.98,3.18,12.3-22.81,11.14-26.37,38.59-10.53,58.68,12.31,15.63,30.14,29.55,42.95,45.1l-14.91,5.4c-23.74,12.86-25.04,47.19-3.95,63.59l18.86,13.55c-13.16,4.16-26.91,8.37-40.72,9.37-15.64,1.13-32.39-1.95-47.7,1.45l-63.9,66.43c-6.59,11.14,2.58,23.2,14.65,17.73l59.26-60.76c22.33-.17,44.54-.08,66.37-5.27,12.09-2.88,23.34-8.02,34.94-12.42,16.63,10.74,31.79,20.83,51.14,25.81,20.94,5.39,40.77,2.32,62.03,3.97l49.1,50.93h8.92ZM469.87,273.5c20.54,2.68,23.76,30,8.11,41.85l-29.54-31.02c5.87-7.08,12-12.06,21.43-10.83Z"/>
      <path class="cls-1" d="M0,96.33v16.4c3.63,10.1,9.18,19.13,15.65,27.49s31.21,34.28,39.31,37.21c8.26,2.99,14.9-5.07,20.91-10.21,12.5-10.7,33.62-33.32,39.22-49.01,10.81-30.29-13.91-59.32-43.99-54.39-3.51.58-10.9,5.14-12.54,5.15-1.62,0-5.11-2.92-7.28-3.64-23.71-7.83-44.93,6.88-51.28,31.01ZM79.59,87.38c7.12.3,14.69,8.08,15.18,15.53.9,13.64-26.25,38.71-36.23,47.02-9.85-9.27-33.9-30.29-35.75-44.17-1.23-9.27,7.76-18.77,16.64-18.38,8.44.37,11.44,9.48,20.27,9.07,7.71-.36,9.75-9.49,19.89-9.07Z"/>
      <path class="cls-1" d="M0,460.61c6.8,10.55,22.42,8.36,22.42-5.27s-15.62-15.82-22.42-5.27v10.54Z"/>
      <path class="cls-1" d="M218.64,200.58c9.21-49.61-47.11-79.82-79.18-40.38-16.44,20.21-39.34,59.13-52.92,82.64-27.08,46.88-29.42,90.16-27.65,144.32-4.75,8.4-25.6,23.43-28.16,31.33-4.37,13.47,7.41,21.93,18.73,13.81,5.94-4.26,22.57-22.21,27.54-28.48,3.18-4.01,5.12-6.26,5.61-11.68,1.74-19.63-1.27-42.1-.04-62.13,3.75-61.08,46.17-105.01,74.75-154.6,7.76-9.78,20.69-12.32,30.62-4.1,27.69,22.94-21.23,54.89-15.62,76.15,2.98,11.31,16.58,16.89,25.7,9.34l66.22-69.85c5.02-9.94-3.48-20.54-13.53-17.72-7.54,2.11-23.95,26.36-32.05,31.34Z"/>
      <path class="cls-1" d="M540.17.56c-4.26-.7-10.77-.63-15.06.02-4.1.63-10.99,5.13-12.56,5.12-1.73,0-9.52-4.78-13.48-5.33-27.35-3.8-51.9,21.59-44.57,50.32,4.58,17.96,33.98,49.57,48.66,60.18,8.45,6.1,11.18,5.12,19.24-.69,13.76-9.92,45.23-43.61,48.21-60.65,3.71-21.28-9.4-45.51-30.44-48.97ZM499,74.83c-6.21-6.32-19.95-21.88-21.94-30.27-3.17-13.35,10.46-24.53,22.37-18.79,2.86,1.38,5.64,6.11,8.93,7.01,11.12,3.04,14.24-8.76,24.08-8.65,8.22.09,15.87,8.12,16.01,16.76.21,12.9-26.64,37.59-35.88,45.79-1.12.1-11.84-10.09-13.57-11.85Z"/>
      <path class="cls-1" d="M176.8,306.59c-5.98.05-11.42,5.25-11.53,11.67-.12,7.18,8.64,13.35,12.34,19.68,5.12,8.76,6.16,18.5,3.04,28.32-2.76,8.69-17.43,19.37-6.55,29.24,8.94,8.11,16.96-.58,22.03-8.3,10.35-15.77,12.06-35.59,5.5-53.4-3.21-8.71-15.08-27.28-24.83-27.21Z"/>
      <path class="cls-1" d="M280.34,141.21c-16.66-.35-13.94,29.31,3.92,23.44,11.56-3.8,9.45-23.16-3.92-23.44Z"/>
    </g>
  </g>
</svg>