<?xml version="1.0" encoding="UTF-8"?>
<svg id="Layer_2" data-name="Layer 2" xmlns="http://www.w3.org/2000/svg" viewBox="0 0 595.32 600">
  <defs>
    <style>
      .cls-1 {
        fill: #0892a5;
      }

      .cls-2 {
        opacity: .15;
      }
    </style>
  </defs>
  <g id="Desktop_Mockup" data-name="Desktop Mockup">
    <g id="Legal_Icon" data-name="Legal Icon" class="cls-2">
      <path class="cls-1" d="M307.03,0c36.46,9.76,50.37,50.27,25.2,79.68-1.57,1.84-7.63,5.93-7.63,6.43v31.05h195.07c.78,0,6.37,2.26,7.68,2.87,17.7,8.33,18.18,33.95,1.04,43.34-1.14.62-5.75,3-6.37,3h-24.02c26.33,61.74,55.65,122.36,82.66,183.88,1.67,3.13,5.47,2.03,8.42,3.29,6.1,2.6,7.14,9.7,5.61,15.55-1.32,5.03-15.38,31.67-18.88,36.18-6.96,8.98-16.75,13.32-27.98,14.2-43.34,3.41-91.03-2.68-134.83.01-9.16-.32-20-4.37-26.3-11.19-4.38-4.73-19.31-33.12-21.35-39.57-2.03-6.4.3-13.56,7-15.78,2.08-.69,5.11.45,6.74-1.46l83.75-185.13h-138.25v32.22c0,.35-2.45,5.82-2.96,6.41-4.26,4.88-14.51,2.46-15.76-4.09-1.13-5.92-.94-39.27.05-45.59.77-4.88,3.77-5.93,8.06-7.17l201.04-.47c7.77.67,10.41-6.77,4.02-11.15l-204.44-.59c-2.88.69-8.76-4.25-8.76-6.47v-35.73c-5.91,1.18-10.49,1.18-16.4,0v35.73c0,2.22-5.89,7.16-8.76,6.47l-201.6-.09c-8.48,1.11-8.69,11.78.04,11.78l198.07-.05c3.31-.37,12.25,2.86,12.25,6.49v340.35h16.4V237.25c0-2.79,7-6.61,9.87-6.44,3.47.21,8.87,5.64,8.87,8.78v254.82h68.54c.93,0,9.66,4.36,11.06,5.35,12.89,9.05,12.42,23.83,11.78,38.01,17.55-2.08,39.3,3.86,42.08,24.11.83,6.07.96,24.41.16,30.42-.47,3.56-2.62,5.49-5.58,7.31l-306.79.31c-3.5.62-8.06-3.24-8.69-6.54-.94-4.92-.66-26.14.08-31.51,2.78-20.25,24.53-26.2,42.08-24.11-.63-14.18-1.11-28.96,11.78-38.01,1.4-.98,10.13-5.35,11.06-5.35h68.54V166.37h-138.25l83.75,185.13c1.64,1.91,4.66.77,6.74,1.46,6.71,2.22,9.03,9.37,7,15.78-2.04,6.45-16.97,34.84-21.35,39.57-6.31,6.81-17.14,10.87-26.3,11.19-43.8-2.69-91.5,3.4-134.83-.01-11.22-.88-21.01-5.22-27.98-14.2-3.49-4.5-17.56-31.14-18.88-36.18-1.53-5.85-.5-12.95,5.61-15.55,2.95-1.26,6.75-.17,8.42-3.29,27.01-61.53,56.33-122.14,82.66-183.88h-24.02c-.63,0-5.24-2.38-6.37-3-17.14-9.39-16.66-35,1.04-43.34,1.3-.61,6.89-2.87,7.68-2.87h195.07v-31.05c0-.5-6.05-4.59-7.63-6.43-25.17-29.41-11.26-69.92,25.2-79.68h18.75ZM290.33,19.03c-6.03,1.03-14.45,7.76-17.51,12.95-14.35,24.3,11.78,53.71,37.37,40.88,29.72-14.91,16.55-60.03-19.85-53.83ZM195.73,352.65l-79.68-179.25-82,179.25h161.68ZM561.27,352.65l-82-179.25-79.68,179.25h161.68ZM208.62,370.23H22.33c4.39,9.07,10.6,27.26,21.06,29.91l142.1.27c12.77-2.15,16.76-20.6,23.13-30.18ZM572.99,370.23h-186.29c6.37,9.58,10.35,28.03,23.13,30.18l142.1-.27c10.46-2.65,16.67-20.84,21.06-29.91ZM198.08,537.77h25.19c7.79,0,11.76,15.2,1.82,18.22-18.89,2.8-41.93-1.99-60.32.6-2.56.36-8.87,3.92-8.87,6.37v19.33h283.53v-19.33c0-2.22-7.14-7.06-9.93-6.47l-167.5-.04c-12.28-1.95-8.28-18.68-.07-18.68h135.32v-18.16c0-1.44-6.26-7.23-8.74-6.49h-181.69c-12.38,2.21-8.08,15.37-8.74,24.65Z"/>
    </g>
  </g>
</svg>