<?xml version="1.0" encoding="UTF-8"?>
<svg xmlns="http://www.w3.org/2000/svg" viewBox="0 0 599.91 600">
  <defs>
    <style>
      .cls-1 {
        fill: #0892a5;
      }

      .cls-2 {
        isolation: isolate;
      }

      .cls-3 {
        mix-blend-mode: color-burn;
        opacity: .15;
      }
    </style>
  </defs>
  <g class="cls-2">
    <g id="Layer_2" data-name="Layer 2">
      <g id="Desktop_Mockup" data-name="Desktop Mockup">
        <g id="Community_Icon" data-name="Community Icon" class="cls-3">
          <path class="cls-1" d="M.33,474.22c.43-4.01,2.84-12.15,4.1-16.38,7.52-25.17,25.13-49.63,48.54-62.09-17.49-43.92-20.9-91.22-15.2-137.99-.95-1.07-13.97,7-16.34,7.64-11.67,3.16-18.11-9.22-7.44-16.81,4.89-3.48,24.88-13.59,30.81-15.99,5.13-2.07,9.15-3.1,13.62,1,2.26,2.07,21,27.77,22.48,30.75,2.54,5.1,2.55,11.43-3.05,14.18-10.27,5.06-15.12-8.83-20.78-14.92-1.02.7-1.45,3-1.64,4.2-4.01,26.12-1.67,60.12,3.97,85.9,1.21,5.55,6.81,28.17,9.38,31.6.71.94.92,1.05,2.09.98,2.97-.18,11.82-4.01,16.23-4.9,88.72-17.9,160.81,70.02,124.04,153.29-14.33,32.46-49.77,60.89-85.62,64.73h-30.42c-42.37-7.31-77.76-36-90.4-77.5-1.74-5.7-2.46-11.67-4.37-17.27.75-9.74-1.02-20.87,0-30.42ZM186.34,542.08c26.71-40.62,19.22-96.08-19.97-125.68-66.11-49.93-158.47,4.79-147.19,86.35,2,14.42,8.18,26.84,15.1,39.33,5.45-8.08,43.78-10.62,45.7-13.65,5.22-8.23-1.93-11.99-5.26-16.88-13.43-19.72-18.72-52.48-4-72.83,19.34-26.72,57.87-27.34,78.16-1.34,5.31,6.8,16.28,29.12,1.67,30.95-11.39,1.43-10.15-9.2-14.01-16.27-9.98-18.28-35.64-20.64-49.08-4.77-13.33,15.75-6.87,47.62,8.89,60.17,14.7,11.71,23.9,5.47,35.01-6.92,2.24-2.5,2.42-5.94,5.94-8.09,7.78-4.76,15.5,1.52,13.92,10.36-1.16,6.48-10.45,12.25-11.43,15.52-.64,2.11-.06,9.14,1.21,10.58,1.3,1.48,25.88,4.8,30.66,6.2,5.29,1.55,10.02,4.1,14.66,6.95ZM122,530.38c-8.28,2.7-15.11,2.7-23.38,0-.71,4.91-.49,12.39-5.52,14.97-8.07,4.14-28.95,4.51-39.21,7.59-1.42.43-6.41,1.75-5.58,3.74,1.52,3.68,17.52,13.62,21.78,15.67,29.96,14.45,69.33,11.46,95.6-9.42,2.4-1.91,6.4-4.71,6.63-7.97-2.6-3.55-37.93-6.1-44.8-9.62-5.03-2.58-4.8-10.06-5.52-14.97Z"/>
          <path class="cls-1" d="M474.2,599.42c-4.01-.43-12.15-2.84-16.38-4.1-25.17-7.52-49.63-25.13-62.09-48.54-43.91,17.57-91.22,20.87-137.99,15.2,1.66,8.12,14.26,20.52,4.65,27.46-5.97,4.3-10.73.78-14.24-4.42-3.68-5.44-13.04-23.81-15.57-30.07-2.27-5.63-3.08-9.41,1.5-14.04,2.84-2.87,26.72-20.31,30.25-22.07,5.1-2.54,11.43-2.55,14.18,3.05,5.06,10.27-8.83,15.12-14.92,20.78,4.56,1.82,11.82,2.69,16.91,2.97,24.21,1.31,49.56-.13,73.19-5.3,5.55-1.21,28.17-6.81,31.6-9.38.94-.71,1.05-.92.98-2.09-.18-2.97-4.01-11.82-4.9-16.23-16.72-82.85,59.14-153.25,140.52-128.82,40.33,12.11,73.95,50.82,77.48,93.34.7,8.37,2.63,25.28-9.95,24.07-10.29-.99-7.62-17.19-8.9-25.12-19.51-120.96-199.36-92.32-182.25,26.63,2.08,14.48,7.95,26.86,15.1,39.33,4.64-2.85,9.38-5.41,14.66-6.95,8.34-2.45,22.73-2.66,29.53-5.52,2.61-1.1,3.07-8.86,2.35-11.26-.47-1.55-9.52-10.98-11.67-15.25-20.03-39.69,2.77-94.86,51.92-83.52,37.44,8.64,45.92,51.52,30.75,82.71-3.69,7.59-16.44,17.87-11.19,26.15,1.91,3.02,40.25,5.57,45.7,13.65,5.19-7.91,8.16-23.65,20.81-17.85,12.7,5.82-9.56,33.6-14.9,39.53-15.37,17.06-43.78,33.1-66.72,35.66-7.11.79-23.28.77-30.42,0ZM484.45,437.09c-35.5,5.05-30.56,60.98-2.67,74.6,15.55,7.59,31.31-10.67,35.15-24.58,6.82-24.67-1.75-54.4-32.48-50.02ZM501.1,530.38c-8.14,2.45-15.24,2.45-23.38,0-.49,3.31-.64,8.52-2.05,11.42-3.85,7.94-37.63,7.39-46.79,12.89-.71.43-2.27.06-1.47,2,1.52,3.68,17.52,13.62,21.78,15.67,29.93,14.43,69.36,11.43,95.6-9.42,2.4-1.91,6.4-4.71,6.63-7.97-2.6-3.55-37.93-6.1-44.8-9.62-5.03-2.58-4.8-10.06-5.52-14.97Z"/>
          <path class="cls-1" d="M546.76,204.01c17.49,43.92,20.9,91.22,15.2,137.99.95,1.07,13.97-6.99,16.34-7.64,11.72-3.18,18.07,9.24,7.44,16.81-4.35,3.1-25.67,14.08-30.82,15.98-9.4,3.47-10.83,1.86-16.86-5.35-4.1-4.9-16.78-21.44-19.24-26.39-2.54-5.1-2.55-11.43,3.05-14.18,10.27-5.06,15.12,8.83,20.78,14.92,1.02-.7,1.45-3,1.64-4.2,3.99-25.99,1.64-60.26-3.97-85.9-1.21-5.55-6.81-28.17-9.38-31.6-.71-.94-.92-1.05-2.09-.98-3.24.2-12.42,4.24-17.16,5.14-81.91,15.53-151.15-58.31-128.41-138.94,20.9-74.12,111.02-103.78,172.73-57.56,61.63,46.14,57.56,143.31-9.24,181.92ZM565.44,162.98c48.44-74.04-20.88-167.9-106.18-139.55-41.41,13.76-67.28,57.15-60.97,100.22,2.13,14.51,7.9,26.83,15.09,39.34,4.64-2.83,9.38-5.44,14.67-6.95,4.85-1.39,29.18-4.44,30.67-6.2,6.41-7.56-7.04-19.07-10.46-25.84-17.46-34.55-3.56-84.58,40.56-85.12,45.08-.55,59.65,50.99,41.35,85.88-3.69,7.04-15.71,16.34-10.42,24.59,2.09,3.26,40.24,5.69,45.7,13.64ZM484.45,57.99c-33.67,4.79-30.49,55.17-7.83,71.57,9.66,6.99,15.93,6.98,25.58,0,26.7-19.31,23.27-77.41-17.75-71.57ZM501.1,151.28c-8.28,2.7-15.11,2.7-23.38,0-.71,4.91-.48,12.39-5.52,14.97-11.95,6.13-35.16,2.05-45.97,11.93,7.79,4.88,14.59,11.03,22.98,15.06,22.42,10.76,47.8,11.85,71.22,3.7,12.13-4.23,22.26-11.32,32.15-19.32-3.11-6.29-38.17-7.37-45.97-11.37-5.03-2.58-4.8-10.06-5.52-14.97Z"/>
          <path class="cls-1" d="M203.99,52.98c43.92-17.49,91.22-20.9,137.99-15.2,1.07-.95-6.99-13.97-7.64-16.34-3.18-11.72,9.24-18.07,16.81-7.44,3.47,4.87,13.6,24.9,15.99,30.81,2.27,5.63,3.08,9.41-1.5,14.04-2.84,2.87-26.72,20.31-30.25,22.07-5.1,2.54-11.43,2.55-14.18-3.05-5.06-10.27,8.83-15.12,14.92-20.78-.7-1.02-3-1.45-4.2-1.64-26.12-4.01-60.12-1.67-85.9,3.97-5.55,1.21-28.17,6.81-31.6,9.38-.94.71-1.05.92-.98,2.09.2,3.24,4.24,12.42,5.14,17.16C243.96,221.91,56.19,272.63,7.95,152.43c-3.2-7.98-10.2-23.93,1.99-27.32,11.22-3.12,13.58,16.93,17.1,24.62.9,1.98,6.93,13.16,7.8,13.23,5.42-8.55,42.85-10.02,45.15-13.62,5.85-9.12-6.45-17.02-10.42-24.59-21.26-40.49,3.29-97.18,53.36-83.78,36.21,9.69,43.57,51.8,28.97,82.28-3.4,7.11-12.64,14.53-12.24,21.44.07,1.25.86,4.87,1.81,5.53,3.12,2.15,24.18,4.08,30.2,5.81,5.29,1.52,10.02,4.13,14.67,6.95,6.97-12.2,12.76-24.22,14.92-38.34C217.81,16.3,64.68-23.33,25.17,74.92c-3.11,7.74-4.3,25.91-12.65,27.16-22.28,3.34-3.57-36.91,1.23-45.6,40.57-73.35,147.9-75.91,190.23-3.5ZM105.35,57.99c-33.67,4.76-30.22,55.37-7.83,71.57,9.66,6.99,15.93,6.98,25.58,0,26.79-19.38,23.43-77.39-17.75-71.57ZM122,151.28c-8.28,2.7-15.11,2.7-23.38,0-.71,4.91-.48,12.39-5.52,14.97-5.65,2.9-46.06,6.46-45.95,11.36,35.5,32.93,90.75,32.67,126.34,0-3.12-6.29-38.16-7.36-45.97-11.37-5.03-2.58-4.8-10.06-5.52-14.97Z"/>
          <path class="cls-1" d="M195.82,284.57c5.18-2.85,18.14,8.06,19.2,8.07.68,0,8.29-5.72,11.65-6.87,26.6-9.02,52.68,12.59,49.66,40.3-1.41,12.88-10.96,22.12-19.74,30.54l42.85,42.62,43.7-42.62c-8.27-8.05-17.46-16.59-19.34-28.61-4.81-30.6,25.04-53.68,53.34-40.47,1.78.83,7.12,5.1,7.57,5.1.59,0,6.84-5.03,9.96-6.2,2.67-1,8.9-1.55,9.25-1.87,1.01-.95,1.42-13.31,1.24-15.69-.5-6.7-7.9-21.71.3-25.47,14.7-6.75,18.3,18.31,18.47,27.84.08,4.7-2.21,11.01-1.23,14.97.22.89,5.86,2.87,7.64,4.3,18.32,14.67,20.95,36.93,6.41,55.54-5.69,7.29-38.92,41.21-45.66,45.61-4.75,3.1-7.3,3.43-12.04.44-4.36-2.76-21.06-22.37-23.43-21.94l-49.84,49.69c-3.72,3.29-8.11,3.27-11.81,0l-49.84-49.69c-3.18-.56-20.37,22.52-27.32,23.97-3.28.69-6.83-1.62-9.41-3.55-8.6-6.42-38.99-37.16-45.4-45.87-15.85-21.53-8.19-47.2,15.05-58.5-11.33-70.18,73.01-112.8,122.39-61.32,6.17-4.72,11-9.5,17.95-13.39,19.1-10.69,41.24-12.43,61.66-4.28,6.77,2.7,16.16,6.35,13.67,15.18-3.87,13.74-18.36,2.01-26.41-.11-18.94-4.98-35.47.37-50.09,12.62-6.37,5.34-11.16,15.89-21.03,11.69-2.14-.91-9.41-9.8-12.34-12.22-40.76-33.79-96.1-.81-87.04,50.18ZM187.23,302.5c-13.74,2.22-19.35,19.11-10.84,30.16,5.79,7.52,29.34,31.1,36.85,36.87.88.67,1.38,1.91,2.8,1.63,8.23-10.55,38.95-33.43,41.43-45.23,3.44-16.36-12.57-29.31-27.46-21.62-4.58,2.37-9.08,10.63-14.78,10.46-9.62-.29-11.4-14.97-28-12.28ZM356.89,302.5c-11.13,1.8-17.18,13.71-14.36,24.33,3.13,11.79,32.87,33.6,41.15,44.34,1.42.27,1.92-.96,2.8-1.63,7.51-5.77,31.07-29.35,36.85-36.87,11.77-15.3-2.81-35.22-21.16-29.34-6.94,2.22-10.81,11.83-18.47,11.43-8.12-.42-10.69-14.86-26.81-12.25Z"/>
        </g>
      </g>
    </g>
  </g>
</svg>