<?xml version="1.0" encoding="UTF-8"?>
<svg id="Layer_2" data-name="Layer 2" xmlns="http://www.w3.org/2000/svg" viewBox="0 0 599.72 600">
  <defs>
    <style>
      .cls-1 {
        fill: #0892a5;
      }

      .cls-2 {
        opacity: .15;
      }
    </style>
  </defs>
  <g id="Desktop_Mockup" data-name="Desktop Mockup">
    <g id="House_Icon" data-name="House Icon" class="cls-2">
      <path class="cls-1" d="M77.24,600c-1.68-1.87-7.03-6.38-7.03-8.79V253.24H11.05c-8.92,0-15.37-15.15-7.52-21.57L295.08.73c6.01-1.81,10.61-.16,15.18,3.67l117.25,93.03v-46.27c0-3.67,5.9-8.34,9.93-8.81,24.97-2.89,55.32,2.23,80.89,0,6.67.67,11.26,6.86,11.15,13.45l.14,122.86,66,52.31,4.1,5.87v7.03c-1.96,3.55-6.75,9.37-11.13,9.37h-59.16v97.82c0,9.87-20.63,15.22-24.1.67l-.45-97.96-1.15-3.54-203.52-159.58-3.84,1.57L94.81,251.48v325.09h137.06v-114.22c0-7.54,9.15-25.45,14.08-31.6,27.86-34.74,79.87-34.74,107.73,0,4.94,6.16,14.08,24.07,14.08,31.6v114.22h137.06v-124.76c0-.39,3.66-5.92,4.38-6.48,7.48-5.72,18.07-1.04,20.15,7.71l.09,135.85c-.26,5.3-3.67,7.81-7.06,11.1H77.24ZM47.95,228.64h35.73L294.26,63.17c3.24-1.38,6.97-1.27,10.32-.37l211.38,165.83h36.9L299.42,28.55,47.95,228.64ZM504.83,66.97h-52.72v49.79c14.45,12.11,29.13,24.07,43.98,35.69,2.59,2.02,5.63,5.15,8.74,5.9v-91.38ZM344.34,576.57v-104.85c0-22.64-21.71-42.58-43.91-42.85-22.61-.27-45.12,19.69-45.12,42.85v104.85h89.03Z"/>
      <path class="cls-1" d="M250.37,190.33c18.65-1.55,35.14,6.62,50.03,16.85,28.06-23.34,73.02-24.8,92.91,9.39,35.25,60.59-51.8,111.25-84.09,150.92-6.39,5.48-12.66,5.47-19.35.55-32.54-39.5-121.55-92.12-82.37-152.65,9.29-14.36,25.83-23.65,42.88-25.06ZM250.33,214.89c-32.58,4.22-34.47,44.11-14.37,64.14l63.28,63.23c19.14-21.54,44.18-40.92,62.71-62.62,12.61-14.78,22.02-35.83,8.66-53.23-14.75-19.22-37.26-12.24-54.27-.59-3.48,2.38-6.07,6.7-10.24,8.5-12.04,5.19-16.6-4.86-25.32-10.62-9.01-5.95-19.41-10.22-30.43-8.8Z"/>
      <path class="cls-1" d="M515.1,389.36c16.43-2.37,18.87,22.79,3.1,24.36-15.31,1.52-18.65-22.11-3.1-24.36Z"/>
      <path class="cls-1" d="M316.99,493.81c16.3-.55,17.15,27.22-2.45,24.12-13.02-2.06-11.63-23.65,2.45-24.12Z"/>
    </g>
  </g>
</svg>