<?xml version="1.0" encoding="UTF-8"?>
<svg id="Layer_2" data-name="Layer 2" xmlns="http://www.w3.org/2000/svg" viewBox="0 0 593.22 600">
  <defs>
    <style>
      .cls-1 {
        fill: #0892a5;
      }

      .cls-2 {
        opacity: .15;
      }
    </style>
  </defs>
  <g id="Desktop_Mockup" data-name="Desktop Mockup">
    <g id="Mental_Health_Icon" data-name="Mental Health Icon" class="cls-2">
      <path class="cls-1" d="M559.4,11.57c17.81,12.39,32.06,35.48,33.82,57.07v359.84c-3.92,34.05-30.54,63.83-66.18,67.16l-337.08.28c-31.21,27.25-60.64,56.06-92.39,82.66-8.43,9.55-32.1,35.91-38.29,10.98l-.13-94.95c-32.25-6.32-54.71-33.63-59.15-64.97V66.28C4.62,35.31,28.2,7.1,60.24,1.77,213.14-1.79,366.59,1.31,519.69.2c13.2,1.48,28.61,3.65,39.71,11.37ZM80.32,484.16v81.76c4.85-1.18,6.04-5.62,9.21-8.54,27.24-25.05,54.98-49.75,82.92-73.77,3.53-3.04,5.53-8.23,11.32-9.5l343.14-.4c28.52-3.65,46.2-28.83,46.55-56.12-1.12-117.38,1.97-235.05-1.59-352.26-6.4-24.31-23.48-41.31-49.72-43.33l-453.43.19c-32.27,3.8-47.34,28.72-49.02,58.54-6.23,110.64,4.83,226.84,0,338.06.64,21.96,13.64,45.05,35.54,52.37,9.92,3.32,23.13.17,25.06,12.99Z"/>
      <path class="cls-1" d="M273.88,113.36c.38.21.61,1.5,1.37,1.93,7.14,4.05,14.52,7.54,20.7,13.05,6.57-4.46,13.24-8.61,20.1-12.64,58.84-34.57,134.07.99,138.7,69.28,5.2,76.69-71.66,173.32-141.27,201.88-12.04,4.94-14,7.17-26.76,2.8-74.66-25.58-161.97-136.08-146.76-216.49,11.27-59.56,80.03-88.91,133.93-59.81ZM267.71,133.95c-43.06-25.03-103.4-1.83-108.14,48.76-6.42,68.57,58.85,147.77,117.23,179.13,4.22,2.27,17.32,8.26,21.53,7.84,2.58-.25,16.52-7,19.64-8.73,57.17-31.7,121.66-109.28,115.77-177.17-3.77-43.53-49.98-69.48-91.7-57.21-17.44,5.13-28.48,18.85-43.84,26.74-.6.31.06,2.1-1.01,2-2.65.54-1.56-1.55-2.27-1.96-9.72-5.64-17.7-13.87-27.21-19.4Z"/>
      <path class="cls-1" d="M403.76,160.38c15.7-3.35,18.16,23.92,17.62,34.27-.61,11.63-7.34,34.99-13.33,45.07-6.73,11.32-21.36,7.44-20.07-6.3.45-4.78,6.83-15.49,8.73-21.78,2.48-8.22,4.53-16.78,3.67-25.44-.72-7.3-9.68-23.03,3.39-25.82Z"/>
      <path class="cls-1" d="M369.14,138.6c8.51-1.96,24.2,1.64,23.76,12.35-.54,13.17-14.62,11.6-23.7,7.66-8.1-3.52-9.06-17.94-.06-20.01Z"/>
    </g>
  </g>
</svg>