<?xml version="1.0" encoding="UTF-8"?>
<svg id="Layer_2" data-name="Layer 2" xmlns="http://www.w3.org/2000/svg" viewBox="0 0 484.77 600">
  <defs>
    <style>
      .cls-1 {
        fill: #0892a5;
      }

      .cls-2 {
        opacity: .15;
      }
    </style>
  </defs>
  <g id="Desktop_Mockup" data-name="Desktop Mockup">
    <g id="Safety_Icon" data-name="Safety Icon" class="cls-2">
      <path class="cls-1" d="M272.52,20.09c56.81,45.87,92.53,61.3,166.09,71.32,10.1,1.38,20.71,1.78,31.41,3.36,5.12.75,10.42,3.71,11.44,9.2,1.63,8.78,1.75,22.03,2.28,31.4,3.02,53.68-.57,113.09-11.44,165.75-26.25,127.16-113.36,231.23-221.4,296.84-5.76,3.5-11.96,2.12-17.39-1.31-37.17-23.49-75.96-51.73-106.24-84.19-3.59-3.85-12.49-12.88-13.03-17.38-1.2-10.04,5.95-18.36,16.05-15.48,6.39,5.24,11.27,12.54,17.06,18.22,27.67,27.12,54.85,47.13,87.25,68.06,2.64,1.7,5.01,6.2,9.44,5.78l45.54-31.68c57.29-44.28,104.72-100.52,134.55-167.51,35.18-78.99,39.72-168.58,34.59-253.89-10.64-.38-21.48-.95-32.05-2.18-63.22-7.33-110.88-29.89-160.04-68.45-7.86-6.17-15.88-12.15-23.61-18.5-2.63-.01-6.92,6.15-8.68,7.62-52.74,44.07-102.63,70.85-171.84,80.29-8.79,1.2-22.37.54-30.09,2.33-.36.08-2.13,3.96-6.18,2.15-1.09,10.66-.71,21.36-1.09,32.05-3.72,104.43,16.5,210.69,80.94,295,1.53,4.37,2.36,7.63-.07,11.86-3.3,5.74-8.7,9.76-15.28,6.19-6.16-3.33-25.02-33.89-29.53-41.62C6.44,331.49-5.89,219.82,2.3,112.56c.32-4.23,1.17-10.03,4.47-12.91,6.38-5.57,35.32-4.57,44.8-6.09,11.84-3.84,27.48-5.06,40.96-8.11C149.1,72.65,195.56,38.78,238.07.64c3.45-.81,7.31-.99,10.65.34,7.42,7.03,15.9,12.73,23.8,19.11Z"/>
      <path class="cls-1" d="M252.94,77.7c48.08,35.64,87.16,55.96,147.06,67.52,8.99,1.74,23.02.62,28.14,8.8,4.88,7.78,1.64,34.46,1.23,44.43-.5,12.14.06,37.85-3.81,48.35-5.44,14.78-23.36,9.91-23.38-4.89-.01-8.96,2.74-21,3.26-30.44.71-12.71.77-25.68.95-38.41-12.83-3.23-26.48-4.29-39.22-7.84-.92-.26-.83-1.82-2.32-2.26-42.72-12.44-82.01-29.78-116.69-57.43-6.77-5.4-8.14.46-12.46,3.54-33.62,24.03-74.25,44.76-113.62,56.13-14.18,4.09-29.08,6.21-43.58,8.91.9,61.6,8.01,123.52,34.81,179.54,23.66,49.49,60.65,95.27,102.52,129.99,2.91,2.41,24.76,19.03,26.36,19.37,2.29.49,11.23-5.63,13.58-7.4,66.68-50.14,121.14-127.68,140.05-210.11,1.26-2.31,7.79-7.2,10.13-7.32,4.89-.25,11.61,6.51,12.33,11.81.7,5.22-5.7,26.75-7.7,33.08-24.84,78.68-85.81,155.13-152.66,201.85-10.67,7.46-15.01,9.54-26.5,1.79-82.02-55.32-147.48-145.87-166.66-244.04-6.33-32.42-13.35-86.74-10.32-119.05.87-9.25,4.01-9.65,10.59-14.59,9.08-.55,18.61-1.97,27.5-3.82,55.97-11.61,97.77-34.22,142.42-68.38,6.24-4.77,12.11-3.49,17.98.86Z"/>
      <path class="cls-1" d="M239.93,206.97c.71.51,1.04,2.53,2.05,2.82,3.24.94,2.93-2.14,4.56-3.24,42.38-28.44,96.6,4.01,100.29,52.68,2.21,29.22-7.37,44.94-25.56,65.79-20.37,23.34-44.96,50.49-66.81,72.26-8.27,8.24-14.55,8-22.9.02-34.4-47.34-118.8-94.49-85.13-163.44,16.7-34.2,61.05-50.08,93.5-26.89ZM251.89,236.63c-12.22,10.47-17.48-3.63-26.86-8.8-42.24-23.26-80.15,30.44-53.17,67.29l71.31,76.52c1.47.26,4.23-3.12,5.3-4.25,19.35-20.51,45.61-46.3,62.43-67.95,35.16-45.26-13.24-100.5-55.99-66.84-1.42,1.12-2,3.14-3.03,4.02Z"/>
    </g>
  </g>
</svg>