<?xml version="1.0" encoding="UTF-8"?>
<svg id="Layer_2" data-name="Layer 2" xmlns="http://www.w3.org/2000/svg" viewBox="0 0 601.93 600">
  <defs>
    <style>
      .cls-1 {
        fill: #0892a5;
      }

      .cls-2 {
        opacity: .15;
      }
    </style>
  </defs>
  <g id="Desktop_Mockup" data-name="Desktop Mockup">
    <g id="Childcare_Icon" data-name="Childcare Icon" class="cls-2">
      <path class="cls-1" d="M531.16,544.71c34.52-2.93,67.12-29.75,70.26-65.49,4.26-48.55-18.33-93.09-51.61-126.15l.02-219.86c-22.76-183.49-284.24-174.7-295.62,9.61l.04,141.2c-5.33-1.44-10.58-3.2-16.17-3.64-39.55-3.14-83.48,2.18-123.47.35-19.39,2.59-38.15,22.49-38.15,42.34v31.84H16.99c-5.51,0-15.02,6.8-15.94,12.89,1.25,21.14-2.63,46.34-.27,67,1.25,10.91,11.79,13.51,12.06,14.62,1.86,7.64-2.39,26.1.58,32.81,2.91,6.6,14.99,3.75,14.99-2.98v-27.03l92.53,21c1.87,1.41,1.02,9.82,1.99,13.62,2.94,11.52,14.9,18.62,26.16,19.49,13.17,1.02,52.69,1.82,64.39-.58,14.05-2.89,23.57-19.26,21.56-33.1l93.7-20.43v123.14c0,3.37-6.14,9.61-10.18,9.04l-282.27-.1c-16.86-2.63-.34-41.68-12.71-47.38-3.92-1.8-9.92.43-10.77,4.83-1.06,5.52-.72,32.25.26,38.13,1.67,9.97,11.91,19.08,21.94,20.11l287.15.03c6.87-.84,15.77-7.43,18.83-13.6.59-1.18,3.36-9.25,3.36-9.85v-31.84h186.81ZM279.48,340.48v-22.22c0-7.63-7.25-15.87-9.66-22.77,2.32-50.16-2.91-102.8,0-152.67,6.58-112.79,136.7-170.2,221.66-94.22,18.8,16.81,42.68,56.66,42.68,82.26v212.03c-25.53-18.81-56.24-25.83-87.7-26.42,1.4-7.26-2.12-26.85.6-32.45.61-1.25,16.08-10.5,19.26-13.18,38.6-32.53,38.73-85.78,35.46-132.82-1.6-23.1-13.63-39.53-37.85-41.44-40.46-3.19-85.15,2.36-126.05.17-19.98,3.29-32.82,17.44-34.41,37.67-3.9,49.56-4.04,105.58,37.91,138.77,3.66,2.9,20.96,12.14,21.61,13.22,2.4,3.95-.58,24.14.59,30.05-29.68-.24-59.04,8.55-84.1,24.02ZM465.97,112.55c13.93,2.52,19.13,12.11,20.18,25.47,2,25.38,1.93,72.74-9.43,95.17-31.93,63.08-125.45,59.22-151.31-6.51-8.26-21.01-8.33-67.91-6.33-91.06,1.06-12.33,8.19-21.94,21.06-23.39,38.86-4.37,86.1,3.02,125.83.32ZM379.19,291.23c16.67,3.99,35.17,3.6,51.66-1.2v36.64c0,.44-3.58,6.75-4.28,7.73-10.34,14.65-32.87,14.9-43.1,0-.86-1.25-4.28-8.13-4.28-8.93v-34.24ZM92.08,354.9v-31.84c0-1.1,2.35-8.56,3.02-10.2,3.92-9.58,13.78-15.96,23.96-16.88,38.05-3.46,81.44,2.58,120.05.18,10.13.03,24.76,13.44,24.76,23.29v35.44h-15.62v-31.84c0-6.55-7.92-10.91-13.75-11.47-35.61-3.45-76.78,2.7-112.98.06-3.8-1-12.62,6.09-12.62,9.01v34.24h-16.82ZM124.51,327.27h108.12v27.63h-108.12v-27.63ZM365.85,332.21c.2.18.74,3.73,1.45,5.13,11.48,22.62,38.37,30.53,60.33,17.34,9.85-5.92,12.47-13.34,18.43-22.42,9.43-.99,18.77.89,28.04,2.22l-19.78,105.74c-2.16,9.24-9.18,18.89-17.84,23-10.1,4.79-47.83,4.99-58.45,1.56-9.81-3.17-20.38-13.35-21.69-23.97-2.62-21.37,3.25-49.77-.26-70.62-.71-4.21-3.5-8.58-6.89-11.13-2.88-2.15-8.51-3.34-9.08-4.13-2.05-2.85-1.81-16.4-4.17-20.46,1.17-1.16,28.6-3.43,29.91-2.28ZM538.97,526.69v-63.07c0-7.88-15.62-6.53-15.62-1.2v66.67h-179v-74.48l6.04,8.98c8.57,10.49,20.76,17.22,34.36,18.5,35.59,3.35,73.56,2.57,84.45-37.78,8.84-32.78,11.6-69.86,19.36-103.17l1.73-3.01c57.38,18.67,100.89,77.24,95.56,138.75-2.06,23.81-22.82,47.35-46.89,49.81ZM323.93,354.9h-37.24l21.19-11.84,13.03-4.99,3.02,16.84ZM16.39,434.19v-61.87c0-.13,1.67-1.8,1.8-1.8h320.75c.13,0,1.8,1.67,1.8,1.8v60.07c0,1.64-7.81,3.12-9.59,3.62-33.59,9.36-69.73,14.73-103.62,21.95-5.04-3.11-9.91-7.21-16.03-8.04-13.96-1.9-50.26-1.45-64.82-.15-7.77.69-12.38,4.22-17.93,9.21l-112.37-24.78ZM210.15,465.67c12.22,4.9,12.22,19.83,0,24.72-18.93-1.55-43.95,2.98-62.14.18-13.43-2.07-14.27-20.45-2.23-24.9h64.37Z"/>
      <path class="cls-1" d="M369.87,227.84c-2.18,2.19-1.95,8.97.06,11.39.85,1.02,9.05,5.78,10.83,6.57,13.48,5.95,28.37,6.43,42.01.71,6.18-2.59,17.09-8.38,13.45-16.53-4.16-9.31-15.76.65-21.38,2.59-8.86,3.06-15.68,3.01-24.57.13-5.75-1.87-14.78-10.49-20.4-4.85Z"/>
      <path class="cls-1" d="M462.98,184c8.84-8.38-7.03-22.79-17.27-23.61-11.43-.92-30.14,11.82-22.08,22.14,8.59,11.01,13.63-6.75,19.84-6.75,5.89,0,10.91,16.37,19.51,8.22Z"/>
      <path class="cls-1" d="M369.88,184.01c6.16,6.02,18.08-1.85,10.53-13.52-6.72-10.37-21.32-12.93-31.64-6.4-6.51,4.12-14.72,18.67-3.54,21.18,10.82,2.43,7.63-8.88,15.44-9.35,7.03-.43,6.86,5.79,9.21,8.09Z"/>
    </g>
  </g>
</svg>