<?xml version="1.0" encoding="UTF-8"?>
<svg id="Layer_2" data-name="Layer 2" xmlns="http://www.w3.org/2000/svg" viewBox="0 0 600.3 600">
  <defs>
    <style>
      .cls-1 {
        fill: #0892a5;
      }

      .cls-2 {
        opacity: .15;
      }
    </style>
  </defs>
  <g id="Desktop_Mockup" data-name="Desktop Mockup">
    <g id="Bottle_Icon" data-name="Bottle Icon" class="cls-2">
      <path class="cls-1" d="M.31,368.05c3.02-25.17,23.47-51.56,46.05-62.3,39.86-18.96,67.91-13.18,102.75-50.71,37.28-40.15,30.14-98.78,93.19-115.33,15.11-3.97,28.51-4.53,43.83-1.26-.98-10.66,1.25-19.51,7.72-28.01,5.73-7.53,38.1-39.84,45.37-43.66,13.53-7.09,26.72-5.37,38.71,3.65,9.06-9.87,23.14-13.98,36.36-11.51,2.61.49,8.29,3.4,9.32,3.2,1.35-.26,3.82-3.8,5.54-4.99,12.5-8.65,24.67-12.85,40.19-11.11,6.79.76,18.69,6.66,24.44,5.53,7.18-1.4,7.75-16.44,10.85-23.21,14.79-32.29,60.81-38.35,83.77-11.18,21.11,24.98,13.23,64.55-16.45,78.49-6.47,3.04-21.01,3.79-22.9,9.94-1.83,5.96,4.44,18.35,5.23,25.35,1.19,10.6-.77,22.21-5.53,31.71-1.75,3.48-10.4,13.16-10.56,14.02-.28,1.5,2.36,5.14,2.82,7.38,2.93,14.49-.28,28-11.12,38.3,9.23,12.26,10.8,25.82,3.21,39.44-4.14,7.43-14.71,18.54-22.05,8.45-6.58-9.04,5.8-13.37,7.71-21.62,1.04-4.48.71-8.48-1.83-12.39l-153.56-153.36c-4.98-2.66-10.94-2.64-15.73.48l-41.43,41.74c-2.65,6.08-2.19,13.27,2.77,18.02,51.51,50.33,100.95,103.23,153.75,151.99,7.18,1.42,11.03.17,16.6-3.91,4.54-3.34,5.11-7.73,12.37-6.33,1.81.35,5.23,3.19,5.86,4.7,6.1,14.48-23.75,28.39-35.69,24.58,8.46,37.06-8.04,76.45-40.65,95.82-35.36,21.01-61.17,19.6-89.85,56.58-24.01,30.95-21.81,55.98-36.8,87.37-10.79,22.58-37.15,43.04-62.3,46.05h-25.77c-15.76-3.6-29.82-10.03-42.19-20.49-43.75-49.16-100.48-93.38-142.93-142.9-10.77-12.56-17.41-26.66-21.06-42.79.7-8.19-.96-17.79,0-25.77ZM548.32,18.06c-7.63.54-17.75,5.44-22.65,11.42-9.28,11.34-4.67,25.56-17.55,35.17-17.31,12.92-31.89-1.76-50.36.02-7.14.69-13.88,4.33-19.34,8.81l87.36,88.36c3.58.8,9.33-14.81,9.74-18.25,2.21-18.3-11.71-32.15-1.27-49.3,10.7-17.56,31.83-8.19,43.02-27.27,13.01-22.17-3.01-50.81-28.96-48.97ZM404.21,76.61c-2.71.27-14.22,3.79-12.12,7.94l126.01,123.67c7.1-8.08,7.37-18.32,1.14-27.02l-99.54-99.61c-4.06-3.38-10.15-5.53-15.5-5ZM257.78,155.19c-14.68,1.58-33.48,9.85-41.85,22.34l90.77,92.06c3.01,9.3-6.23,16.97-14.12,10.6l-87.86-87.84c-11.76,25.77-20.17,50.37-39.21,72.05-35.04,39.9-62.19,38.32-106.61,56.22-38.64,15.57-53.21,64.59-27.94,98.18,47.16,45.37,92.51,100.23,141.53,143.13,35.9,31.41,88.29,25.44,107.18-20.54,18.19-44.26,15.98-71.33,56.22-106.61,21.7-19.03,46.32-27.38,72.05-39.21l-87.83-87.86c-6.82-8.95,4.52-19.69,13.47-12.3l89.19,88.95c27.06-21.13,29.6-64.55,9.11-91.19-38.95-37.4-76.48-83.2-117.01-118.45-16.69-14.51-34.47-21.97-57.09-19.54Z"/>
      <path class="cls-1" d="M422.79,168.08c8.68-.45,11.51,8.99,6.77,15.98-2.25,3.31-19.09,20.09-22.37,22.14-11.19,7-20.07-2.68-12.61-13.78,2.14-3.18,17.8-18.91,21-21.18,1.86-1.32,5.01-3.04,7.22-3.16Z"/>
      <path class="cls-1" d="M390.05,139.87c9.29-2.79,16.34,5.05,11.38,13.72-1.08,1.88-22.92,23.64-24.64,24.54-8.93,4.65-17.47-3.88-13.17-12,1.11-2.1,24.65-25.73,26.44-26.26Z"/>
      <path class="cls-1" d="M361.96,110.56c8.3-1.84,14.82,5.27,10.71,13.1-.91,1.73-23.98,25.13-25.64,25.89-8.55,3.92-17.09-4.85-12.18-13.35,1.48-2.55,19.76-20.77,22.72-22.96,1.44-1.07,2.44-2.25,4.39-2.68Z"/>
      <path class="cls-1" d="M451,197.27c7.67-.75,12.04,6.82,9.07,13.79-.71,1.68-24.12,24.7-25.9,25.64-8.3,4.38-17.25-4.76-11.51-13.85,1.7-2.69,19.86-20.88,22.74-22.94,1.68-1.21,3.48-2.43,5.6-2.64Z"/>
      <path class="cls-1" d="M479.12,226.51c8.41-1.75,13.36,6.93,9.53,14.3-.91,1.75-22.62,23.53-24.54,24.64-8.45,4.88-17.29-3.56-13.35-12.18.71-1.54,21.52-22.23,23.96-24.06,1.41-1.06,2.5-2.31,4.4-2.7Z"/>
      <path class="cls-1" d="M192.15,308.52c3.28-.42,4.21.38,6.71,2.14,2.32,1.63,23.85,23.03,24.57,24.61,3.69,8.06-3.96,17.3-12.71,12.71-1.84-.97-23.33-22.34-24.69-24.5-3.94-6.24-1.51-13.99,6.12-14.97Z"/>
      <path class="cls-1" d="M117.18,383.49c3.28-.42,4.21.38,6.71,2.14,2.19,1.54,23.16,22.35,24.08,23.94,5.2,9.08-3.84,18.03-12.85,12.85-2.05-1.18-22.66-21.74-24.06-23.96-3.94-6.24-1.51-13.99,6.12-14.97Z"/>
      <path class="cls-1" d="M229.59,271.05c2.39-.32,4.83.83,6.77,2.11,2.49,1.65,21.84,21.07,23.36,23.48,5.46,8.68-2.23,18.72-11.51,13.85-1.73-.91-25.13-23.98-25.89-25.64-2.64-5.77.91-12.97,7.27-13.81Z"/>
      <path class="cls-1" d="M154.67,346.01c3.28-.42,4.21.38,6.71,2.14,2.21,1.56,23.13,22.3,24.07,23.94,4.92,8.54-3.64,18.14-12.85,12.85-2.05-1.18-22.66-21.74-24.06-23.96-3.94-6.24-1.51-13.99,6.12-14.97Z"/>
    </g>
  </g>
</svg>